<svg xmlns="http://www.w3.org/2000/svg" viewBox="0 0 1759.18 258.4"><defs><style>.a{fill:#fff;}</style></defs><title>Moreto.co_Branco(1)</title><path class="a" d="M1145.19,1782.71v114h-39.6l0.8-116c0-31.2-20.4-45.6-42.8-45.6-24,0-45.6,18.4-46,48v113.6h-39.2l0.4-116.4c0-29.2-18.4-45.6-41.2-45.6-22.4,0-43.6,15.6-45.6,45.2v116.8H852.4v-192.4h20.4a19.2,19.2,0,0,1,19.2,19.2h0c11.6-14.4,28.8-24,50.4-25.2,31.2,0,53.6,15.6,65.6,40,11.2-23.2,31.2-39.2,60-39.6C1115.19,1698.71,1145.19,1734.71,1145.19,1782.71Z" transform="translate(-852.4 -1643.92)"/><path class="a" d="M1283.19,1901.91c-53.6,0-97.2-45.6-97.2-101.2,0-56.4,42.4-102,97.2-102s96.8,45.2,96.8,102S1338,1901.91,1283.19,1901.91Zm0-164.8c-35.2,0-57.2,28.4-57.2,64,0,34,22.8,63.2,57.2,63.2,35.2,0,56.8-27.2,56.8-63.2C1340,1764.71,1317.59,1737.11,1283.19,1737.11Z" transform="translate(-852.4 -1643.92)"/><path class="a" d="M1528.79,1704.71v36.8c-36.8-7.2-62.8,17.2-64.8,53.6v101.6h-39.6l-0.4-192h15.6a24,24,0,0,1,24,24h0C1474.79,1712.31,1496.39,1703.12,1528.79,1704.71Z" transform="translate(-852.4 -1643.92)"/><path class="a" d="M1730.79,1816.71h-152c6.8,27.2,29.6,46.8,56.4,46.8,16.18,0,29.9-5.1,39.52-13.67a34.25,34.25,0,0,1,34.82-6.7l11.65,4.37c-13.2,33.2-46.8,54.4-86,54.4-52.8,0-96.4-46-96.4-102s43.6-101.6,96.4-101.6c40,0,74,22.8,88,58.4,8,19.6,8,44.4,8,44.4Zm-38.4-30.8c-1.2-7.6-6-19.6-12-26.8-9.2-14.4-25.6-23.2-45.2-23.2-27.6,0-51.2,21.6-57.2,50h114.4Z" transform="translate(-852.4 -1643.92)"/><path class="a" d="M1818.79,1739.11v102c0,16,7.2,18.4,17.6,18.4l21.6,0.4v36.8l-39.2-.4c-28,0-40.8-18.4-40.8-49.2v-108h-34v-34.4h34v-60.8h5.8a35,35,0,0,1,35,35v25.8H1858v34.4h-39.2Z" transform="translate(-852.4 -1643.92)"/><path class="a" d="M1986,1901.91c-53.6,0-97.2-45.6-97.2-101.2,0-56.4,42.4-102,97.2-102s96.8,45.2,96.8,102S2040.79,1901.91,1986,1901.91Zm0-164.8c-35.2,0-57.2,28.4-57.2,64,0,34,22.8,63.2,57.2,63.2,35.2,0,56.8-27.2,56.8-63.2C2042.79,1764.71,2020.39,1737.11,1986,1737.11Z" transform="translate(-852.4 -1643.92)"/><path class="a" d="M2110.39,1875.51a27.2,27.2,0,1,1,54.4,0c0,14.4-12.4,26.8-27.2,26.8A27.15,27.15,0,0,1,2110.39,1875.51Z" transform="translate(-852.4 -1643.92)"/><path class="a" d="M2382.45,1762a35.27,35.27,0,0,1-37.87-9.54c-9.15-9.93-22.63-16.54-41.4-16.54-36.4,0-58.8,29.6-58.8,65.6,0,35.6,22.4,64.8,58.8,64.8,17.31,0,30.18-6.11,38.91-14.28a34.75,34.75,0,0,1,36.38-6.8l9.91,3.87c-13.2,32.8-46,52.8-85.2,52.8-54,0-98.8-44.4-98.8-100.4,0-56.4,44.8-102,98.8-102,41.2,0,76,23.2,88.4,59.2Z" transform="translate(-852.4 -1643.92)"/><path class="a" d="M2514.78,1901.91c-53.6,0-97.2-45.6-97.2-101.2,0-56.4,42.4-102,97.2-102s96.8,45.2,96.8,102S2569.58,1901.91,2514.78,1901.91Zm0-164.8c-35.2,0-57.2,28.4-57.2,64,0,34,22.8,63.2,57.2,63.2,35.2,0,56.8-27.2,56.8-63.2C2571.58,1764.71,2549.18,1737.11,2514.78,1737.11Z" transform="translate(-852.4 -1643.92)"/></svg>